<?xml version="1.0" encoding="UTF-8" standalone="no"?>
<!-- Created with Inkscape (http://www.inkscape.org/) -->

<svg
   width="64.462563mm"
   height="28.59234mm"
   viewBox="0 0 64.462563 28.59234"
   version="1.1"
   id="svg1"
   xml:space="preserve"
   inkscape:version="1.3 (1:1.3+202307231459+0e150ed6c4)"
   sodipodi:docname="logo.svg"
   xmlns:inkscape="http://www.inkscape.org/namespaces/inkscape"
   xmlns:sodipodi="http://sodipodi.sourceforge.net/DTD/sodipodi-0.dtd"
   xmlns="http://www.w3.org/2000/svg"
   xmlns:svg="http://www.w3.org/2000/svg"><sodipodi:namedview
     id="namedview1"
     pagecolor="#ffffff"
     bordercolor="#000000"
     borderopacity="0.25"
     inkscape:showpageshadow="2"
     inkscape:pageopacity="0.0"
     inkscape:pagecheckerboard="0"
     inkscape:deskcolor="#d1d1d1"
     inkscape:document-units="mm"
     inkscape:zoom="1.5042685"
     inkscape:cx="331.05792"
     inkscape:cy="230.67691"
     inkscape:window-width="2490"
     inkscape:window-height="1376"
     inkscape:window-x="0"
     inkscape:window-y="0"
     inkscape:window-maximized="1"
     inkscape:current-layer="layer1" /><defs
     id="defs1" /><g
     inkscape:label="Layer 1"
     inkscape:groupmode="layer"
     id="layer1"
     transform="translate(-48.856668,-39.76921)"><path
       style="fill:#87decd;fill-opacity:0.815421"
       d="m 71.536303,61.810844 c -4.996869,-1.563957 -7.320454,-7.51421 -4.874499,-12.48265 1.535431,-3.118904 4.409362,-4.751003 8.030796,-4.560672 3.148933,0.165498 5.738486,1.869843 7.074492,4.656161 0.912655,1.903395 1.018567,5.244301 0.23238,7.330234 -1.54383,4.09613 -6.256201,6.373654 -10.463169,5.056927 z m 4.403145,-4.453415 c 2.09859,-1.058257 2.908916,-3.619051 1.869429,-5.907775 -0.990211,-2.18023 -3.180501,-2.995359 -5.404824,-2.011435 -2.651644,1.172948 -3.170844,5.283322 -0.931462,7.374151 1.336613,1.247947 2.734683,1.418544 4.466857,0.545059 z"
       id="path2"
       sodipodi:nodetypes="sssssssssss" /><path
       d="m 83.773644,61.617101 c -2.766589,-1.09651 -4.870037,-3.729679 -5.331842,-6.674575 -0.655826,-4.182155 1.298414,-7.889019 5.066078,-9.609491 1.37786,-0.629188 1.785758,-0.694013 3.704167,-0.588677 4.006127,0.219968 6.598607,2.293583 7.729047,6.182146 1.18284,4.068852 -0.84728,8.662427 -4.62444,10.463767 -1.755827,0.83736 -4.741443,0.94087 -6.54301,0.22683 z m 5.174424,-4.430976 c 1.916176,-1.418797 2.475166,-4.080655 1.297116,-6.176711 -1.144175,-2.035785 -4.112928,-2.654735 -5.919037,-1.23405 -0.890799,0.700703 -1.691716,2.423546 -1.699363,3.655481 -0.02044,3.29271 3.844815,5.588937 6.321284,3.75528 z"
       style="fill:#ff8080;fill-opacity:0.804582"
       id="path1" /><path
       d="m 96.269409,56.976165 c 0,-12.841247 -0.048,-12.562703 1.84613,-10.71314 l 1.01504,0.991164 1.212341,-0.834113 c 1.61359,-1.110182 3.10053,-1.606441 4.81337,-1.606441 3.04195,0 5.97526,1.853848 7.38838,4.669457 0.69737,1.389476 0.77679,1.806018 0.77451,4.061794 -0.003,3.199912 -0.6204,4.731902 -2.65546,6.591833 -2.41916,2.21098 -5.71545,2.787352 -8.50733,1.487546 l -1.38906,-0.646701 v 3.691994 3.691995 h -2.248961 -2.24896 z m 10.944611,0.294891 c 1.83839,-1.13619 2.44897,-4.261267 1.22082,-6.248451 -1.69615,-2.744434 -6.06184,-2.395974 -7.30662,0.583199 -1.01134,2.4205 0.35945,5.618186 2.68181,6.255946 0.92685,0.254527 2.46954,-0.01318 3.40399,-0.590694 z"
       style="fill:#000000"
       id="path1-5" /><path
       d="m 48.856668,50.88171 v -11.1125 h 2.248958 2.248958 v 8.863542 8.863543 h 5.55625 5.55625 v 2.248958 2.248959 h -7.805208 -7.805208 z"
       style="fill:#000000"
       id="path1-1" /></g></svg>
